# xmcd CD database file
#
# Track frame offsets:
#	150
#	19190
#	43772
#	66728
#	85757
#	121606
#	332550
#
# Disc length: 4440 seconds
#
# Revision: 0
# Processed by: cddbd v1.5PL3 Copyright (c) Steve Scherf et al.
# Submitted via: CDex 1.51
#
DISCID=59115607
DTITLE=K DUB SHINE - オレはオレ
DYEAR=2003
DGENRE=JPop
TTITLE0=オレはオレ
TTITLE1=天下の回りモン
TTITLE2=目撃者
TTITLE3=オレはオレ (Instrumental)
TTITLE4=目撃者 (Instrumental)
TTITLE5=Data
TTITLE6=Data
EXTD=YEAR: 2003
EXTT0=
EXTT1=
EXTT2=
EXTT3=
EXTT4=
EXTT5=
EXTT6=
PLAYORDER=
